<svg width="326" height="301" viewBox="0 0 326 301" fill="none" xmlns="http://www.w3.org/2000/svg">
<rect width="326" height="301" fill="white"/>
<path d="M138 233.34L135 226L132 233.34L135 246.184L140 251.689L149 259.641L156.5 261.476H168L178 259.641L190.5 253.524L197.5 246.184L202 237V226L197.5 233.34L190.5 240.68L184 246.184L175.5 249.243H166H159.5L153.5 246.184L143 240.68L138 233.34Z" fill="#C4C4C4"/>
<path d="M197.5 269.427V259.641L190.5 265.146L180.5 269.427L173 273.097H166H156.5L149 269.427L145.5 265.146L140 261.476L138 256.583L135 259.641V261.476L138 273.097L145.5 281.5L153.5 288.5L168 291L178 288.5L190.5 277.99L197.5 269.427Z" fill="#C4C4C4"/>
<path d="M138 233.34L135 226L132 233.34L135 246.184L140 251.689L149 259.641L156.5 261.476H168L178 259.641L190.5 253.524L197.5 246.184L202 237V226L197.5 233.34L190.5 240.68L184 246.184L175.5 249.243H166H159.5L153.5 246.184L143 240.68L138 233.34Z" stroke="black"/>
<path d="M197.5 269.427V259.641L190.5 265.146L180.5 269.427L173 273.097H166H156.5L149 269.427L145.5 265.146L140 261.476L138 256.583L135 259.641V261.476L138 273.097L145.5 281.5L153.5 288.5L168 291L178 288.5L190.5 277.99L197.5 269.427Z" stroke="black"/>
<path d="M99 73L55 109L149 226L99 73Z" fill="#716565"/>
<path d="M162 11L105 42L162 226V11Z" fill="#716565"/>
<path d="M220 64L181 59L174 220L220 64Z" fill="#716565"/>
<path d="M249 128L225 116L189 220L249 128Z" fill="#716565"/>
<path d="M99 73L55 109L149 226L99 73Z" stroke="black"/>
<path d="M162 11L105 42L162 226V11Z" stroke="black"/>
<path d="M220 64L181 59L174 220L220 64Z" stroke="black"/>
<path d="M249 128L225 116L189 220L249 128Z" stroke="black"/>
</svg>
