<svg width="210" height="242" viewBox="0 0 210 242" fill="none" xmlns="http://www.w3.org/2000/svg">
<path d="M113.016 43.6024L112.745 0.6033L73.853 17.8481L39.6204 140.066L26.6583 146.147C23.0211 150.837 14.7616 162.622 10.8221 172.247C6.88246 181.872 19.9643 194.857 26.9977 200.146C37.3329 200.414 58.0021 200.751 57.9971 199.951C57.9921 199.151 69.2485 186.88 74.8773 180.845L74.8208 171.845L194.573 132.092L209.378 100.998L170.379 101.243L96.7072 153.707L79.5756 132.814L163.323 92.2873L163.052 49.2881L118.053 49.5709L74.5757 132.846L57.4441 111.953L113.016 43.6024Z" fill="#B93D3D"/>
<path d="M43.8106 241.873L101.889 241.873L101.889 199.951L0.249531 200.146L43.8106 241.873Z" fill="#ACF473"/>
</svg>
