<svg width="240" height="259" viewBox="0 0 240 259" fill="none" xmlns="http://www.w3.org/2000/svg">
<path fill-rule="evenodd" clip-rule="evenodd" d="M65.905 2.25C66.586 4.041 79.457 34.752 86.689 51.841C88.954 57.194 86.927 54.942 76.056 40.028C70.432 32.313 65.669 26 65.471 26C64.807 26 68.942 34.677 85.327 67.668C94.295 85.726 104.725 106.928 108.504 114.785C112.759 123.631 115.835 128.893 116.583 128.606C117.248 128.351 119.751 127.579 122.146 126.891C124.541 126.203 126.618 125.565 126.762 125.474C126.907 125.383 122.945 114.777 117.959 101.904C112.973 89.032 105.256 69.05 100.809 57.5L92.725 36.5L79.273 18.25C71.875 8.213 65.648 0 65.435 0C65.223 0 65.434 1.013 65.905 2.25ZM92.285 5C92.525 5.825 99.788 28.1 108.425 54.5C117.062 80.9 125.761 107.528 127.757 113.673L131.384 124.846L137.74 125.173C143.665 125.478 144.063 125.365 143.62 123.5C143.359 122.4 140.58 105.075 137.444 85L131.744 48.5L121.2 29.5C108.999 7.515 107 4.13 107.028 5.5C107.039 6.05 111.292 23.358 116.478 43.962C121.665 64.566 125.793 81.54 125.652 81.682C125.51 81.823 118.267 64.965 109.555 44.219C95.22 10.083 90.93 0.342 92.285 5ZM44.539 34.828L50.863 56.84L68.061 85.17C77.52 100.751 87.607 117.325 90.477 122C93.347 126.675 96.7 132.188 97.929 134.25C99.158 136.312 100.383 138 100.651 138C101.285 138 110 132.008 110 131.572C110 131.114 90.139 90.42 73.117 56C65.365 40.325 59.025 27.95 59.028 28.5C59.031 29.05 61.275 37.15 64.014 46.5C66.753 55.85 68.995 63.95 68.995 64.5C68.995 65.05 62.442 54.025 54.434 40C46.425 25.975 39.5 14.121 39.044 13.658C38.589 13.195 41.062 22.721 44.539 34.828ZM42.712 67.75C64.009 105.082 67.756 111.944 65.783 110C64.945 109.175 57.375 99.725 48.961 89C22.601 55.403 17.561 49.106 17.267 49.4C17.109 49.557 21.35 59.865 26.691 72.306L36.402 94.925L52.334 111.713C61.097 120.946 73.23 133.785 79.297 140.244L90.327 151.987L93.664 147.033C95.499 144.308 97 141.834 97 141.535C97 141.236 95.052 138.18 92.671 134.745C90.291 131.31 74.289 107.913 57.113 82.75C39.936 57.587 25.722 37 25.526 37C25.33 37 33.064 50.838 42.712 67.75ZM134 131.222C134 132.036 134.494 134.119 135.098 135.851C136.076 138.657 136.62 139 140.098 139C142.244 139 144.338 138.887 144.75 138.75C145.371 138.543 145.29 131.957 144.659 131.325C144.551 131.218 142.109 130.818 139.232 130.436C134.967 129.871 134 130.016 134 131.222ZM124 131.723C123.175 132.033 121.475 132.666 120.222 133.129L117.945 133.971L120.035 138.069C121.359 140.663 122.626 141.974 123.492 141.642C124.243 141.353 126.465 140.816 128.429 140.447C132.449 139.693 132.58 139.324 130.551 134.468C129.131 131.069 127.524 130.396 124 131.723ZM109.5 138.613C108.4 139.465 106.669 140.761 105.654 141.492C103.613 142.963 103.946 145.092 106.794 148.781L108.556 151.062L112.714 147.866L116.872 144.67L114.916 140.835C112.735 136.56 112.353 136.403 109.5 138.613ZM127.322 145.226L124.143 146.248L126.82 151.706C129.444 157.057 129.459 157.191 127.557 158.582C126.491 159.362 125.347 160 125.017 160C124.687 160 123.196 157.51 121.703 154.468C118.728 148.4 117.869 148.283 113.172 153.305L110.845 155.794L113.422 159.877C116.405 164.602 116.495 165 114.582 165C113.801 165 112.156 163.371 110.926 161.38L108.689 157.761L106.861 160.13C104.065 163.755 103.653 165.959 105.41 167.9C106.284 168.867 107 170.033 107 170.491C107 170.95 108.406 173.515 110.124 176.193C114.744 183.392 120.614 186.507 129.5 186.474C137.189 186.445 140.83 185.016 145.747 180.1C153.278 172.568 154.454 162.082 149.038 150.75C145.847 144.074 145.767 144 141.799 144C138.386 144 137.887 144.262 138.463 145.75C141.379 153.288 139.129 155.8 136 148.5C133.948 143.712 133.065 143.379 127.322 145.226ZM97.536 150.732C94.356 155.412 94.372 156.033 97.75 159.222L100.5 161.818L103.165 158.016L105.829 154.213L103.379 150.607C102.031 148.623 100.735 147 100.5 147C100.265 147 98.931 148.679 97.536 150.732ZM0.589996 206.743C0.265996 207.068 0 214.008 0 222.167V237H9.077C17.776 237 18.276 236.878 21.077 234.077C24.53 230.624 24.918 226.355 22.095 222.868C20.688 221.132 20.442 220.043 21.154 218.711C22.834 215.572 21.717 210.859 18.775 208.672C16.711 207.138 14.245 206.587 8.615 206.4C4.526 206.264 0.914996 206.419 0.589996 206.743ZM35.059 208.306C34.593 209.513 32.316 215.45 30 221.5C27.684 227.55 25.397 233.512 24.919 234.75C24.144 236.755 24.355 237 26.854 237C29.184 237 29.982 236.283 31.579 232.75C33.467 228.573 33.586 228.5 38.5 228.5C43.406 228.5 43.537 228.58 45.474 232.75C47.119 236.291 47.923 237 50.292 237C53.661 237 53.928 238.232 46.602 219.98C41.665 207.677 40.973 206.502 38.554 206.316C36.644 206.169 35.672 206.723 35.059 208.306ZM56.488 207.02C56.063 207.707 55.733 214.621 55.755 222.385L55.794 236.5L63.366 236.792C75.653 237.265 80.989 232.834 80.996 222.151C81.001 215.698 78.948 210.991 75.149 208.747C71.446 206.56 57.566 205.275 56.488 207.02ZM84.714 206.619C84.321 207.012 84 214.008 84 222.167V237H86.5C88.986 237 89 236.947 89 227.8C89 222.48 89.369 219.001 89.876 219.55C90.358 220.072 91.969 224.212 93.458 228.75C95.798 235.883 96.473 237 98.446 237C100.223 237 101.07 236.058 102.269 232.75C103.116 230.413 104.64 226.25 105.655 223.5L107.5 218.5L107.788 227.75C108.07 236.835 108.119 237 110.538 237H113V221.483V205.966L109.424 206.24L105.847 206.515L102.345 217.345C100.418 223.302 98.649 227.982 98.413 227.746C98.177 227.51 96.511 222.633 94.712 216.909C91.572 206.918 91.32 206.488 88.434 206.203C86.781 206.039 85.107 206.227 84.714 206.619ZM118.639 206.694C118.288 207.046 118 214.008 118 222.167V237H121.026H124.052L123.776 221.849C123.511 207.303 123.416 206.684 121.389 206.376C120.228 206.2 118.991 206.343 118.639 206.694ZM130.25 206.662C129.328 207.034 129 211.086 129 222.083V237H131.964H134.928L135.214 227.315L135.5 217.629L141.882 227.315C147.513 235.86 148.605 237 151.158 237H154.052L153.776 221.75L153.5 206.5H151C148.533 206.5 148.493 206.633 148 216.5L147.5 226.5L142.151 218.151C134.9 206.834 133.404 205.39 130.25 206.662ZM157.25 206.721C156.563 206.966 156 208.254 156 209.583C156 211.817 156.379 212 161 212H166V224.5V237H168.5H171V224.5V212H176C180.63 212 181 211.82 181 209.567C181 208.121 180.29 206.918 179.25 206.6C177.193 205.971 159.072 206.07 157.25 206.721ZM190.396 207.429C182.936 210.677 179.896 221.706 184.179 229.992C188.626 238.598 199.798 240.402 206.589 233.611C212.31 227.89 213.052 218.588 208.36 211.427C205.18 206.574 196.698 204.686 190.396 207.429ZM215.45 206.883C215.203 207.131 215 214.008 215 222.167V237H217.465C219.906 237 219.933 236.9 220.215 226.76L220.5 216.52L227.248 226.76C233.32 235.974 234.297 237 236.998 237H240V222.059C240 213.089 239.597 206.869 238.991 206.494C238.436 206.152 237.102 206.15 236.027 206.492C234.293 207.042 234.039 208.201 233.786 216.709L233.5 226.306L226.784 216.213C221.627 208.462 219.584 206.156 217.984 206.276C216.838 206.362 215.698 206.636 215.45 206.883ZM201.055 212.03C207.51 215.484 207.356 228.213 200.819 231.594C194.178 235.028 188 230.303 188 221.788C188 217.659 188.481 216.365 190.923 213.923C193.978 210.869 197.616 210.189 201.055 212.03ZM16.849 214.434C17.352 217.077 14.387 219 9.809 219C6.112 219 6 218.896 6 215.448V211.895L11.241 212.198C15.494 212.443 16.551 212.864 16.849 214.434ZM72.03 213.016C74.918 214.562 76.419 220.729 75.101 225.627C73.85 230.271 71.097 232 64.953 232H61V222V212H65.566C68.077 212 70.986 212.457 72.03 213.016ZM41.444 221.75C42.071 223.792 41.805 224 38.567 224C36.605 224 35 223.855 35 223.678C35 223.501 35.755 221.14 36.678 218.431L38.356 213.507L39.554 216.503C40.214 218.151 41.064 220.512 41.444 221.75ZM16.418 224.607C18.282 225.322 18.514 229.086 16.8 230.8C16.14 231.46 13.44 232 10.8 232H6V228V224H10.418C12.848 224 15.548 224.273 16.418 224.607ZM30.067 248.608C31.293 250.593 32.634 253.63 33.046 255.358C33.79 258.478 33.796 258.481 33.898 255.73C33.954 254.207 35.131 251.169 36.513 248.98C37.894 246.791 38.621 245 38.128 245C37.634 245 36.493 246.125 35.592 247.5C34.691 248.875 33.586 250 33.137 250C32.688 250 31.808 248.875 31.182 247.5C30.555 246.125 29.547 245 28.94 245C28.333 245 28.84 246.624 30.067 248.608ZM41.557 247.223C40.701 248.445 40 250.47 40 251.723C40 254.535 43.312 258 46 258C48.688 258 52 254.535 52 251.723C52 248.076 49.255 245 46 245C44.151 245 42.554 245.799 41.557 247.223ZM54 249.929C54 256.903 57.111 259.617 62.066 256.965C63.616 256.135 64 254.844 64 250.465C64 243.478 62.202 243.302 61.802 250.25C61.523 255.103 61.311 255.5 59 255.5C56.689 255.5 56.477 255.103 56.198 250.25C55.815 243.602 54 243.337 54 249.929ZM67 251.667C67 255.333 67.338 257.996 67.75 257.583C68.162 257.171 68.5 255.858 68.5 254.667C68.5 251.009 72.563 251.255 74.516 255.031C76.439 258.749 77.503 258.452 76.04 254.606C75.317 252.704 75.364 251.39 76.202 250.048C77.972 247.214 75.637 245 70.878 245H67V251.667ZM85 245.883C85 246.369 85.913 247.006 87.029 247.297C88.667 247.726 88.957 248.408 88.53 250.829C88.239 252.479 88.423 254.881 88.937 256.165C89.687 258.036 89.886 257.356 89.937 252.75C89.992 247.688 90.239 247 92 247C93.1 247 94 246.55 94 246C94 245.45 91.975 245 89.5 245C87.025 245 85 245.398 85 245.883ZM97.185 251.152C94.973 257.299 94.846 260.025 96.954 256.086C98.468 253.257 102.582 253.35 104.132 256.247C104.794 257.483 105.495 258.014 105.691 257.426C106.152 256.045 101.281 245 100.212 245C99.765 245 98.403 247.769 97.185 251.152ZM109 247C107.9 248.1 107 250.125 107 251.5C107 254.394 110.202 258.006 112.75 257.986C117.219 257.951 119 256.782 119 253.883C119 251.474 118.589 251 116.5 251C115.125 251 114 251.45 114 252C114 252.55 114.713 253 115.583 253C116.454 253 116.979 253.563 116.75 254.25C116.15 256.049 110.902 255.791 109.712 253.905C108.387 251.805 109.547 247.388 111.632 246.588C112.54 246.239 114.343 246.65 115.641 247.5C118.109 249.117 118.867 248.267 116.8 246.2C114.979 244.379 111.237 244.763 109 247ZM121.202 251.25L121.5 257.5L125.25 257.81C127.421 257.99 129 257.674 129 257.06C129 256.477 127.65 256 126 256C123.03 256 123 255.944 123 250.5C123 247.333 122.556 245 121.952 245C121.302 245 121.017 247.371 121.202 251.25ZM131 250.941C131 254.209 131.45 257.16 132 257.5C132.628 257.888 133 255.677 133 251.559C133 247.853 132.565 245 132 245C131.446 245 131 247.647 131 250.941ZM136 251.667C136 258.858 136.896 260.012 137.165 253.166C137.254 250.875 137.592 249.001 137.914 249.002C138.236 249.003 139.779 251.029 141.343 253.503C142.906 255.978 144.594 257.751 145.093 257.443C146.301 256.696 146.265 245 145.055 245C144.535 245 143.972 247.069 143.805 249.597L143.5 254.193L140.605 249.597C139.013 247.069 137.325 245 136.855 245C136.385 245 136 248 136 251.667ZM148.409 246.377C148.118 247.134 148.02 249.947 148.19 252.627L148.5 257.5L152.382 257.818C154.517 257.993 156.744 257.656 157.332 257.068C158.089 256.311 157.179 256 154.2 256C150.667 256 150 255.683 150 254C150 252.381 150.667 252 153.5 252C155.425 252 157 251.55 157 251C157 250.45 155.425 250 153.5 250C151.056 250 150 249.548 150 248.5C150 247.452 151.056 247 153.5 247C155.425 247 157 246.55 157 246C157 244.43 149.022 244.78 148.409 246.377ZM166 250.941C166 254.209 166.45 257.16 167 257.5C167.583 257.861 168 256.844 168 255.059C168 252.327 168.32 252 171 252C173.514 252 174 252.395 174 254.441C174 255.784 174.45 257.16 175 257.5C175.628 257.888 176 255.677 176 251.559C176 247.853 175.565 245 175 245C174.45 245 174 246.125 174 247.5C174 249.611 173.533 250 171 250C168.467 250 168 249.611 168 247.5C168 246.125 167.55 245 167 245C166.446 245 166 247.647 166 250.941ZM179 251.5V258H183.5C188.932 258 189.533 256.248 184.25 255.81C179.4 255.409 179.018 252.643 183.75 252.187C188.113 251.766 187.911 250 183.5 250C181.056 250 180 249.548 180 248.5C180 247.457 181.049 247 183.441 247C185.334 247 187.16 246.55 187.5 246C187.878 245.389 186.344 245 183.559 245H179V251.5ZM190.667 245.667C189.609 246.724 189.893 256.816 191 257.5C191.583 257.861 192 256.844 192 255.059C192 250.892 195.345 250.875 197.872 255.03L199.714 258.059L199.725 252.28C199.73 249.101 199.232 246.169 198.617 245.765C197.216 244.844 191.56 244.774 190.667 245.667ZM203 251.5V258H207.5C209.975 258 212 257.55 212 257C212 256.45 210.425 256 208.5 256C205.667 256 205 255.619 205 254C205 252.444 205.667 252 208 252C209.65 252 211 251.55 211 251C211 250.45 209.65 250 208 250C206 250 205 249.5 205 248.5C205 247.452 206.056 247 208.5 247C210.425 247 212 246.55 212 246C212 245.45 209.975 245 207.5 245H203V251.5ZM48.066 247.035C51.485 248.865 50.313 256 46.593 256C42.229 256 40.359 250.784 43.571 247.571C45.431 245.712 45.564 245.696 48.066 247.035ZM74.791 248.876C74.359 251.157 69.179 251.631 68.349 249.466C67.536 247.348 69.412 246.165 72.614 246.777C74.232 247.086 74.991 247.818 74.791 248.876ZM198.356 249.515C198.034 250.355 196.529 251 194.893 251C192.703 251 192 250.532 192 249.073C192 248.014 192.788 246.967 193.75 246.748C196.317 246.164 199.019 247.787 198.356 249.515ZM101.985 251.25C101.993 251.663 101.325 252 100.5 252C98.969 252 98.451 249.882 99.682 248.652C100.353 247.98 101.955 249.787 101.985 251.25ZM0.239998 251.219C0.555998 252.167 3.834 252.5 12.833 252.5C29.379 252.5 29.024 250.589 12.41 250.219C2.522 249.999 -0.0950021 250.214 0.239998 251.219ZM214.496 251.007C213.431 252.73 216.316 253.112 228.023 252.801C235.963 252.59 239.461 252.127 239.752 251.25C240.276 249.671 215.469 249.432 214.496 251.007Z" fill="black"/>
</svg>
