<svg width="168" height="173" viewBox="0 0 168 173" fill="none" xmlns="http://www.w3.org/2000/svg">
<path fill-rule="evenodd" clip-rule="evenodd" d="M76.4662 2.85673C66.1602 9.39273 57.7322 21.9477 54.8082 35.1177C54.1002 38.3047 53.1872 41.1197 52.7792 41.3717C52.3712 41.6237 50.4532 39.6737 48.5182 37.0367C40.2722 25.8027 28.6742 17.0527 17.5352 13.6597C11.0052 11.6707 1.90918 11.4397 0.132181 13.2167C-0.243819 13.5927 0.210176 15.3457 1.14118 17.1107C22.1662 56.9637 48.2092 102.636 54.1532 110.077C55.8902 112.252 55.8952 112.198 54.3092 108.322C53.4092 106.122 52.0942 102.747 51.3882 100.822C49.4372 95.5067 35.8082 64.8567 29.3762 51.3217C18.2502 27.9087 16.8602 24.9077 16.8602 24.3057C16.8602 23.9707 19.0852 24.9077 21.8052 26.3887C29.0392 30.3257 36.9422 37.7757 44.3402 47.6337L50.8602 56.3207L50.9592 64.8217C51.0132 69.4967 51.3752 75.7967 51.7632 78.8217L52.4682 84.3217L53.4142 76.3217C53.9342 71.9217 54.3242 67.5347 54.2802 66.5717C54.1072 62.7327 56.1472 65.2827 60.7042 74.6007C63.3342 79.9787 67.9092 90.3147 70.8712 97.5697C73.8332 104.824 76.4112 110.604 76.6012 110.414C76.7912 110.225 76.0232 105.626 74.8942 100.196C72.2902 87.6637 66.7532 70.7747 61.6622 59.8317C57.7722 51.4717 57.7232 51.2247 58.8892 45.8217C60.1882 39.8017 65.5112 27.5247 68.8642 22.8167C70.0312 21.1767 70.6632 19.3127 70.2692 18.6737C69.8632 18.0177 69.9842 17.7807 70.5472 18.1287C71.0952 18.4667 73.0232 17.2167 74.8332 15.3497C76.6422 13.4827 79.4382 11.4107 81.0452 10.7447C83.7432 9.62772 84.2222 9.77972 87.2662 12.7307C91.8802 17.2027 98.4082 29.0077 101.829 39.0677C106.61 53.1217 106.612 53.4817 101.991 64.2547C97.3742 75.0177 93.6702 87.4117 91.4042 99.6817C88.9622 112.903 89.6142 113.16 94.2952 100.822C101.248 82.4907 107.819 69.0217 108.885 70.9127C109.378 71.7887 110.279 78.7637 110.887 86.4127C111.494 94.0627 112.265 101.897 112.599 103.822L113.206 107.322L114.067 102.822C114.541 100.347 115.051 89.0027 115.2 77.6127L115.471 56.9027L119.245 51.4237C124.389 43.9547 138.207 30.9437 144.681 27.4727C147.604 25.9057 150.195 24.8237 150.44 25.0687C150.685 25.3137 149.704 28.1707 148.26 31.4177C141.526 46.5587 125.829 87.2887 125.879 89.4917C125.936 91.9827 145.239 57.5267 159.125 30.1467C164.195 20.1497 168.095 11.7237 167.793 11.4217C167.49 11.1187 164.344 11.3247 160.801 11.8797C142.78 14.7007 128.576 23.2457 117.083 38.1807L112.511 44.1237L110.634 37.2227C106.656 22.5937 98.4352 9.14772 89.5192 2.68972C84.5122 -0.937277 82.4062 -0.910269 76.4662 2.85673ZM109.36 124.041C95.8002 129.505 72.6582 134.606 65.9182 133.617C61.5272 132.973 63.1602 134.408 68.2862 135.699C74.4302 137.246 90.7292 137.047 100.36 135.307C104.76 134.512 108.473 133.852 108.61 133.842C109.469 133.774 108.608 142.307 107.317 146.655C104.199 157.155 95.7772 163.065 83.7772 163.175C75.0332 163.255 65.5122 158.834 60.8882 152.545C57.4422 147.86 53.8942 137.563 53.7972 131.967C53.7362 128.501 53.6832 128.445 52.7092 130.822C51.0822 134.791 52.2032 148.642 54.5832 153.971C60.9582 168.25 78.8242 175.835 95.4702 171.33C112.451 166.733 120.518 152.003 118.404 129.448C117.591 120.777 117.539 120.746 109.36 124.041Z" fill="black"/>
</svg>
